<svg xmlns="http://www.w3.org/2000/svg" viewBox="0 0 352 352" width="352" height="352" role="img" aria-label="Casa Árbol tree of life mark">
<path fill="#B08648" fill-rule="evenodd" d="M152.67,325.62 C139.27,321.88 130.00,309.04 130.00,294.21 C130.00,289.45 129.79,288.87 128.25,289.48 C127.29,289.86 124.11,290.68 121.19,291.30 C116.75,292.25 115.73,292.20 114.93,290.97 C114.29,289.98 114.19,290.98 114.62,294.00 C115.58,300.65 116.46,301.34 123.12,300.65 C128.62,300.07 128.82,300.13 129.46,302.68 C130.24,305.82 128.86,306.96 124.25,306.98 C119.22,307.01 120.40,308.72 126.75,310.61 C132.17,312.22 137.00,315.79 137.00,318.18 C137.00,319.58 128.38,318.47 123.54,316.45 C121.57,315.63 118.28,313.45 116.23,311.61 C114.18,309.78 110.88,307.70 108.91,306.99 C103.65,305.12 97.85,300.89 95.26,297.06 C92.54,293.02 92.44,292.01 94.75,291.98 C95.71,291.96 93.80,290.86 90.50,289.52 C86.62,287.94 83.17,285.61 80.75,282.91 C77.49,279.28 77.00,278.10 77.00,273.81 C77.00,271.09 77.42,268.08 77.94,267.11 C78.75,265.59 78.18,265.17 73.80,264.05 C68.24,262.62 61.89,257.62 59.31,252.63 C57.64,249.40 55.89,244.00 56.52,244.00 C56.73,244.00 58.27,245.98 59.94,248.41 C65.76,256.88 72.82,259.39 85.64,257.58 C94.01,256.40 105.20,257.09 105.78,258.83 C105.98,259.44 108.06,258.85 110.81,257.38 C113.39,256.01 119.32,254.00 124.00,252.90 C140.68,249.00 144.06,247.14 153.00,236.91 C156.03,233.45 163.27,225.54 169.09,219.34 C178.43,209.41 187.76,195.98 185.31,196.01 C184.86,196.02 183.66,197.78 182.63,199.92 C181.61,202.07 178.97,206.00 176.77,208.66 C171.58,214.96 156.91,230.24 156.48,229.81 C155.80,229.13 159.04,215.83 160.64,212.72 C161.55,210.95 164.89,206.35 168.07,202.50 C179.32,188.87 182.26,179.82 180.12,165.43 C179.01,157.99 179.04,157.81 182.65,148.21 C191.74,124.00 192.05,111.25 183.91,95.99 C182.23,92.83 179.62,88.77 178.10,86.95 L175.35,83.65L170.61,90.29 C163.70,99.98 162.00,105.65 162.00,119.01 C162.00,131.36 163.50,137.27 169.66,149.17 C171.58,152.89 172.83,156.47 172.42,157.12 C171.96,157.88 172.12,158.04 172.87,157.58 C174.85,156.36 178.27,165.70 178.79,173.76 C179.22,180.40 178.99,181.57 176.08,187.49 C174.33,191.05 170.86,196.33 168.37,199.23 C165.89,202.13 163.11,205.74 162.21,207.25 C161.31,208.76 160.22,210.00 159.78,210.00 C159.35,210.00 159.00,206.71 159.00,202.68 C159.00,180.49 144.01,165.58 133.43,177.25 C131.82,179.02 131.44,179.69 132.58,178.73 C135.37,176.40 135.73,176.52 136.49,179.95 C136.90,181.82 136.55,184.15 135.52,186.31 C133.54,190.50 128.53,195.44 127.14,194.59 C126.58,194.24 125.81,191.92 125.44,189.43 C124.27,181.67 128.41,174.24 136.60,169.37 C138.25,168.38 137.87,168.14 133.68,167.49 C122.34,165.75 104.58,173.07 91.71,184.80 C87.42,188.70 83.03,192.17 81.96,192.51 C79.86,193.18 79.25,195.00 81.12,195.00 C81.86,195.00 81.77,195.60 80.87,196.75 C79.66,198.30 79.68,198.36 81.09,197.26 C81.97,196.58 82.98,196.31 83.34,196.68 C84.44,197.78 84.08,206.99 82.84,209.32 C81.19,212.40 75.81,219.00 74.93,219.00 C73.73,219.00 72.00,212.99 72.00,208.79 C72.00,204.32 73.15,201.67 76.80,197.76 C78.20,196.25 79.14,194.81 78.88,194.55 C78.21,193.88 66.70,196.97 65.50,198.14 C64.84,198.78 65.13,198.88 66.32,198.43 C67.96,197.80 68.07,198.13 67.41,201.62 C65.88,209.78 61.59,215.72 55.93,217.52 C53.05,218.44 52.71,217.82 52.71,211.63 C52.71,201.87 58.44,196.55 75.50,190.44 C78.25,189.45 81.85,187.26 83.50,185.57 L86.50,182.50L79.00,181.96 C69.16,181.26 63.35,178.40 57.26,171.27 C54.65,168.22 50.85,164.67 48.81,163.38 C44.61,160.73 40.54,154.29 39.57,148.75 C38.93,145.10 38.99,145.00 41.92,145.00 C49.14,145.00 55.32,150.80 56.58,158.75 C57.34,163.55 56.71,164.00 53.82,160.75 C52.35,159.09 52.44,159.42 54.15,162.00 C61.84,173.59 71.50,178.15 83.86,176.03 C88.60,175.21 93.23,173.37 100.00,169.60 C105.22,166.70 111.02,163.72 112.89,162.98 C116.11,161.71 116.17,161.61 114.03,160.82 C109.67,159.20 105.75,155.65 100.46,148.49 C95.20,141.37 94.94,141.18 85.62,137.57 C75.79,133.76 71.14,130.03 67.53,123.06 C66.66,121.38 65.72,120.00 65.44,120.00 C65.16,120.00 65.43,120.94 66.05,122.09 C67.72,125.21 66.58,125.45 62.10,122.94 C56.93,120.03 54.52,115.23 54.51,107.80 C54.49,99.28 55.82,98.77 62.26,104.86 C66.77,109.13 67.95,110.99 69.38,116.15 C72.29,126.62 75.00,129.18 87.26,133.02 C94.92,135.42 95.26,135.43 94.62,133.25 C94.34,132.29 93.85,127.45 93.52,122.50 C92.81,111.65 91.65,108.38 87.79,106.39 C84.25,104.56 79.41,105.36 77.99,108.02 C76.54,110.73 76.78,115.57 78.44,116.95 C80.97,119.05 84.46,117.84 84.82,114.75 C85.16,111.77 87.41,111.03 88.39,113.58 C89.32,116.00 89.12,119.48 87.99,120.61 C87.30,121.30 87.34,122.68 88.10,124.86 C89.63,129.24 88.56,129.91 85.18,126.68 C83.65,125.20 81.58,124.00 80.60,124.00 C77.75,124.00 72.24,117.79 71.48,113.72 C69.38,102.55 84.55,93.57 92.70,101.17 C98.68,106.75 99.36,108.64 100.12,121.63 C100.71,131.76 101.30,134.91 103.50,139.82 C108.59,151.16 116.59,156.32 131.64,157.96 C145.14,159.43 151.73,161.88 158.25,167.85 L161.00,170.37L161.00,167.72 C161.00,161.98 156.81,153.65 151.09,148.00 C144.14,141.15 138.48,139.01 124.64,138.01 C107.51,136.77 104.94,134.20 105.29,118.63 C105.40,113.34 105.80,109.01 106.16,109.01 C106.52,109.00 108.04,110.44 109.52,112.20 C111.82,114.94 112.13,116.03 111.64,119.64 C110.38,128.81 113.88,132.00 125.19,132.00 C132.63,132.00 145.24,134.57 150.20,137.10 C152.40,138.23 154.00,138.59 154.00,137.96 C154.00,135.59 148.45,125.75 145.28,122.47 C140.82,117.88 138.19,116.62 125.34,112.91 C112.50,109.20 108.57,107.32 104.36,102.84 C100.58,98.82 98.69,95.11 97.10,88.64 C96.45,85.97 94.36,80.70 92.46,76.92 C88.42,68.91 88.04,63.81 91.02,57.96 C92.13,55.78 93.23,54.00 93.47,54.00 C93.70,54.00 95.09,56.36 96.54,59.25 C99.56,65.23 99.54,72.40 96.50,74.62 C94.96,75.75 94.94,76.08 96.32,78.05 C97.83,80.20 97.87,80.18 100.03,75.86 C104.43,67.10 110.02,63.08 120.76,60.97 C124.17,60.30 127.48,59.13 128.11,58.37 C129.75,56.39 130.89,56.69 130.31,58.94 C129.95,60.29 130.86,61.82 133.29,63.95 C142.21,71.79 141.76,84.83 132.50,86.57 C126.44,87.70 120.66,81.53 124.01,77.49 C125.75,75.39 126.81,75.64 127.18,78.25 C127.57,81.01 131.73,81.38 133.35,78.80 C135.83,74.87 130.69,68.57 124.23,67.64 C112.86,66.00 102.63,77.35 104.46,89.58 C105.75,98.19 112.80,103.57 126.00,106.01 C137.41,108.12 143.87,110.92 149.64,116.27 L152.79,119.19L153.51,113.90 C154.95,103.49 160.63,90.92 167.68,82.57 C169.51,80.41 171.00,77.88 171.00,76.94 C171.00,76.01 169.82,72.67 168.38,69.52 C166.23,64.82 164.51,62.88 158.82,58.73 C150.87,52.93 148.99,49.95 148.27,42.02 C147.74,36.16 149.15,31.78 152.46,29.03 C154.54,27.31 154.84,27.71 156.18,34.12 C157.16,38.78 157.07,40.05 155.54,43.27 C153.61,47.34 151.49,48.37 152.48,44.75 C153.01,42.83 152.94,42.75 152.01,44.23 C150.68,46.34 152.84,51.08 156.22,53.44 C159.74,55.91 160.14,55.37 159.44,49.15 C158.66,42.29 160.60,37.06 166.34,30.50 C171.05,25.13 172.50,26.49 172.50,36.30 C172.50,42.59 172.13,44.04 169.62,47.75 C166.35,52.56 165.33,52.98 164.71,49.75 C164.38,48.06 164.24,48.28 164.14,50.64 C164.06,52.36 164.64,55.28 165.43,57.14 L166.86,60.50L168.37,56.92 C171.10,50.45 175.30,48.84 173.12,55.10 C172.50,56.86 172.00,59.42 172.00,60.78 C172.00,63.96 174.09,71.00 175.04,71.00 C176.94,71.00 178.25,64.55 177.70,57.95 C177.38,54.13 177.49,51.00 177.94,51.00 C179.38,51.00 181.16,53.82 182.49,58.22 C183.78,62.49 183.79,62.49 184.83,59.86 C186.39,55.90 187.38,49.16 186.15,50.94 C184.78,52.91 182.71,51.10 180.05,45.60 C176.91,39.11 177.80,27.00 181.42,27.00 C182.99,27.00 185.20,30.87 184.38,32.20 C183.99,32.82 184.14,33.03 184.71,32.68 C186.09,31.83 188.57,34.72 190.57,39.50 C191.79,42.42 192.04,44.93 191.55,49.22 C190.84,55.56 191.37,56.07 195.37,52.93 C198.32,50.60 198.68,48.41 196.58,45.42 C195.80,44.31 194.87,41.80 194.50,39.86 C193.80,36.11 195.47,28.00 196.95,28.00 C199.05,28.00 203.00,34.31 203.11,37.83 C203.42,48.08 201.12,52.28 191.56,58.90 C184.89,63.53 184.35,64.19 181.86,70.90 L179.22,78.00L184.00,84.31 C191.74,94.52 196.14,104.31 197.49,114.29 L198.14,119.09L201.79,115.88 C206.54,111.71 215.63,107.66 225.00,105.55 C235.85,103.11 240.45,100.80 243.34,96.34 C246.70,91.14 247.46,86.72 245.93,81.26 C242.45,68.83 226.61,62.73 219.56,71.11 C216.51,74.73 216.40,76.03 218.84,79.06 C221.03,81.75 224.00,81.12 224.00,77.95 C224.00,76.70 224.51,76.00 225.25,76.25 C225.96,76.49 226.50,78.33 226.50,80.54 C226.50,90.16 213.30,88.42 211.45,78.56 C210.47,73.39 211.64,70.13 216.02,65.74 C219.36,62.41 219.83,61.40 219.31,58.79 C218.84,56.43 219.02,55.84 220.10,56.22 C220.87,56.49 221.44,57.44 221.37,58.32 C221.29,59.20 221.52,59.85 221.87,59.76 C223.37,59.37 233.27,61.18 237.20,62.57 C242.64,64.49 248.66,70.21 251.25,75.92 L253.25,80.34L254.59,77.92 C256.23,74.95 256.57,71.58 254.98,74.00 C253.47,76.31 252.03,73.47 252.02,68.14 C252.00,63.87 256.27,54.00 258.13,54.00 C259.89,54.00 262.38,60.74 262.38,65.50 C262.38,70.96 259.62,77.50 257.80,76.38 C257.13,75.96 256.97,76.15 257.40,76.83 C257.79,77.46 257.18,80.06 256.05,82.62 C254.92,85.17 254.00,87.63 254.00,88.09 C254.00,88.55 253.08,91.37 251.96,94.37 C248.17,104.50 242.96,108.20 226.24,112.64 C214.46,115.77 210.63,117.65 205.84,122.67 C202.29,126.38 193.73,140.72 195.58,139.84 C196.09,139.61 199.58,137.91 203.34,136.07 C209.51,133.05 211.36,132.66 222.34,132.01 C229.03,131.62 235.29,130.95 236.26,130.54 C238.30,129.66 238.76,127.89 239.28,119.10 C239.58,113.91 240.08,112.35 241.94,110.85 C243.19,109.83 244.51,109.00 244.86,109.00 C245.21,109.00 245.50,113.63 245.50,119.29 C245.50,134.99 243.23,137.22 226.00,138.38 C214.20,139.17 210.43,140.19 204.32,144.28 C198.51,148.16 194.03,154.58 191.54,162.58 C190.53,165.83 189.47,169.18 189.20,170.00 C188.91,170.86 189.94,170.39 191.60,168.91 C198.49,162.76 206.56,159.52 220.02,157.50 C240.15,154.47 248.34,145.66 250.12,125.11 C250.63,119.31 251.49,112.88 252.05,110.83 C254.60,101.34 265.34,95.42 272.98,99.28 C276.33,100.98 279.96,107.67 279.98,112.17 C280.00,116.70 276.47,121.22 270.62,124.16 C268.36,125.29 265.49,127.15 264.25,128.29 C262.30,130.07 262.00,130.13 262.00,128.67 C262.00,127.75 262.38,127.00 262.84,127.00 C263.73,127.00 263.54,123.39 262.41,118.68 C261.66,115.51 263.57,111.00 265.67,111.00 C266.40,111.00 267.00,111.45 267.00,112.00 C267.00,112.55 266.56,113.00 266.03,113.00 C264.86,113.00 265.92,116.20 267.43,117.23 C271.84,120.26 276.23,112.51 272.71,107.90 C270.74,105.30 267.39,104.75 264.07,106.47 C259.94,108.60 258.01,112.79 257.96,119.70 C257.93,122.89 257.52,127.53 257.04,130.00 C256.56,132.47 256.25,134.58 256.35,134.68 C256.85,135.19 270.34,130.91 272.77,129.47 C276.64,127.19 279.55,122.50 280.99,116.24 C281.81,112.69 283.17,110.09 285.18,108.24 C286.82,106.73 289.67,104.02 291.52,102.21 C294.74,99.06 294.93,99.00 295.94,100.89 C297.59,103.98 297.20,113.09 295.25,117.00 C293.46,120.59 284.85,126.05 284.18,124.03 C283.99,123.47 282.07,125.26 279.91,128.00 C275.86,133.11 272.17,135.47 262.56,139.06 C258.52,140.58 256.01,142.38 253.26,145.73 C248.13,152.00 240.92,159.27 238.52,160.60 C236.71,161.60 236.97,161.89 241.34,163.83 C243.98,165.00 245.91,166.33 245.62,166.80 C244.96,167.87 248.96,171.37 249.84,170.49 C250.20,170.13 249.62,169.20 248.56,168.42 C244.89,165.74 248.27,167.01 255.68,171.10 C262.07,174.63 264.19,175.27 270.92,175.73 C277.84,176.21 279.38,175.97 284.30,173.72 C290.44,170.91 292.51,168.05 293.61,160.85 C295.03,151.61 299.80,146.47 308.75,144.54 C311.90,143.86 312.00,143.95 312.00,147.10 C312.00,148.90 311.06,152.31 309.91,154.69 C307.83,158.99 301.65,165.00 299.31,165.00 C298.63,165.00 296.24,167.70 294.00,171.00 C288.54,179.04 282.90,182.00 273.03,182.00 C269.16,182.00 266.00,182.42 266.00,182.92 C266.00,185.59 271.17,189.66 276.16,190.92 C279.10,191.66 284.24,193.49 287.58,194.99 C295.65,198.61 298.30,202.33 298.84,210.79 C299.38,219.28 298.35,220.10 292.48,215.88 C287.67,212.43 284.37,207.41 283.99,202.99 C283.63,198.79 283.91,198.57 286.50,201.00 C287.87,202.29 289.25,203.08 289.57,202.76 C290.71,201.63 282.46,196.98 274.77,194.42 C268.00,192.17 265.91,190.84 258.74,184.25 C246.23,172.73 230.18,165.96 219.02,167.50 C213.37,168.27 211.84,169.49 215.40,170.38 C218.66,171.20 223.66,177.14 225.08,181.88 C226.29,185.90 225.58,195.00 224.07,195.00 C223.62,195.00 221.40,192.99 219.13,190.52 C215.56,186.65 215.00,185.43 215.00,181.52 C215.00,176.54 216.07,175.83 218.44,179.22 C219.30,180.44 220.00,181.01 220.00,180.47 C219.98,177.78 215.29,173.85 211.49,173.35 C203.15,172.26 195.38,182.13 193.01,196.84 C192.34,200.97 191.42,205.06 190.96,205.93 C190.50,206.79 189.04,209.97 187.73,213.00 C186.41,216.03 182.04,222.55 178.03,227.50 C169.08,238.54 167.05,242.73 167.02,250.26 C167.00,255.85 166.83,256.20 161.41,262.09 C154.87,269.21 152.99,273.16 153.02,279.72 L153.04,284.50L157.50,279.50 C165.90,270.09 167.33,266.78 168.04,255.00 C168.77,242.84 169.52,241.04 178.03,230.89 C181.33,226.95 185.67,220.40 187.67,216.35 C189.67,212.30 191.49,209.15 191.70,209.37 C192.11,209.78 193.29,221.18 193.26,224.50 C193.25,225.60 192.99,231.00 192.68,236.50 L192.11,246.50L193.16,238.25 C193.73,233.71 194.56,230.00 194.99,230.00 C196.15,230.00 197.11,233.01 196.35,234.24 C195.99,234.83 196.15,235.03 196.71,234.68 C197.26,234.34 199.81,236.74 202.36,240.03 C204.91,243.31 207.67,246.00 208.50,246.00 C209.32,246.00 210.00,246.36 210.00,246.80 C210.00,248.01 218.52,250.79 227.24,252.44 C235.78,254.05 244.00,257.27 244.00,259.00 C244.00,259.62 243.48,259.80 242.85,259.40 C242.11,258.95 241.96,259.13 242.45,259.91 C242.86,260.58 243.44,260.89 243.74,260.60 C244.03,260.30 245.68,261.03 247.39,262.21 L250.50,264.36L248.08,261.68 C246.75,260.21 245.95,258.72 246.31,258.36 C248.03,256.64 258.01,256.04 266.18,257.17 C278.83,258.91 286.32,256.15 291.67,247.79 C295.08,242.46 296.14,244.85 293.05,250.90 C289.51,257.84 285.31,261.80 279.56,263.61 L274.29,265.27L274.77,272.00 C275.24,278.62 275.19,278.78 271.55,282.82 C267.24,287.59 260.34,290.52 249.66,292.10 L242.50,293.17L242.50,296.58 C242.50,298.46 242.66,300.00 242.85,300.00 C243.57,300.00 249.55,295.63 250.64,294.30 C251.27,293.53 253.41,292.65 255.39,292.32 C260.34,291.52 260.19,293.75 254.92,299.47 C252.11,302.52 249.25,304.41 245.67,305.59 C242.83,306.52 238.76,308.85 236.62,310.76 C231.31,315.51 224.73,318.22 217.83,318.49 C213.60,318.65 211.01,319.39 208.27,321.20 C198.35,327.75 187.34,327.95 174.50,321.82 C172.30,320.77 171.29,320.54 172.25,321.32 C174.66,323.25 174.48,323.69 170.75,324.88 C165.04,326.71 157.67,327.01 152.67,325.62 Z M165.00,314.82 L159.95,310.15L155.72,312.56 C153.40,313.89 150.24,314.98 148.69,314.99 C147.11,314.99 146.15,315.43 146.49,315.98 C147.70,317.94 156.61,319.92 163.28,319.71 L170.06,319.50L165.00,314.82 Z M200.25,317.95 C201.76,317.25 202.99,316.41 202.99,316.09 C202.98,315.77 200.58,314.38 197.65,313.00 L192.32,310.50L187.20,314.69 C182.58,318.46 182.30,318.92 184.29,319.36 C187.87,320.15 197.28,319.31 200.25,317.95 Z M179.94,312.04 C182.47,310.41 185.89,307.61 187.52,305.81 C189.16,304.01 189.50,303.37 188.28,304.40 C186.23,306.11 185.86,306.14 183.67,304.70 C178.39,301.24 171.29,294.42 167.62,289.28 L163.73,283.85L159.44,288.06 C154.72,292.69 154.71,291.60 159.54,299.52 L161.07,302.04L165.72,298.48 L170.38,294.93L172.44,297.04 L174.50,299.14L169.65,303.57 C166.99,306.01 165.19,308.00 165.66,308.00 C166.14,308.00 168.32,309.57 170.51,311.48 C172.70,313.40 174.69,314.97 174.91,314.98 C175.14,314.99 177.40,313.67 179.94,312.04 Z M221.52,311.58 C223.18,311.23 225.80,310.12 227.33,309.11 L230.12,307.28L225.92,306.72 C223.60,306.41 221.44,305.75 221.11,305.27 C220.77,304.78 219.33,306.78 217.91,309.70 C216.20,313.20 215.86,314.55 216.91,313.63 C217.78,312.85 219.86,311.93 221.52,311.58 Z M154.41,306.31 C155.68,305.60 155.44,304.72 152.84,300.73 L149.76,295.99L144.39,299.06 C138.63,302.36 137.00,302.24 137.00,298.53 C137.00,296.77 138.30,295.37 142.09,293.04 C145.66,290.85 147.00,289.45 146.59,288.37 C146.27,287.53 146.00,285.75 146.00,284.42 C146.00,281.23 143.99,281.36 140.75,284.75 C135.60,290.15 134.63,297.39 138.06,304.94 C141.33,312.16 141.46,312.22 147.54,309.53 C150.49,308.22 153.59,306.77 154.41,306.31 Z M212.57,305.48 C213.99,303.04 214.95,300.26 214.69,299.28 C214.34,297.91 214.21,298.01 214.12,299.75 C214.05,300.99 213.49,302.00 212.87,302.00 C210.37,302.00 200.40,295.37 194.23,289.61 C190.56,286.19 187.50,284.02 187.28,284.69 C187.06,285.34 185.25,288.00 183.27,290.60 C181.28,293.20 180.16,295.02 180.77,294.64 C181.38,294.27 182.24,294.53 182.69,295.23 C183.13,295.94 185.14,297.73 187.14,299.22 L190.78,301.93L193.52,297.97 C196.60,293.53 196.84,293.43 199.54,295.41 C201.43,296.79 201.43,296.86 199.51,300.66 C198.43,302.77 197.40,304.81 197.21,305.19 C196.36,306.91 207.05,311.45 209.24,310.29 C209.64,310.07 211.14,307.91 212.57,305.48 Z M224.83,299.40 C235.21,301.46 234.61,301.60 236.26,296.76 L237.76,292.35L230.29,291.09 C226.19,290.40 222.70,289.99 222.55,290.17 C222.40,290.35 222.05,293.43 221.77,297.00 C221.49,300.57 221.46,302.46 221.71,301.19 C222.08,299.28 222.63,298.97 224.83,299.40 Z M108.08,296.25 L107.47,292.50L101.99,292.21 L96.50,291.92L102.00,295.93 C105.03,298.13 107.77,299.95 108.09,299.97 C108.42,299.99 108.41,298.31 108.08,296.25 Z M215.38,292.17 C214.50,287.44 212.39,284.25 208.98,282.49 C206.28,281.09 206.24,281.12 205.67,284.63 C204.98,288.92 206.21,291.12 210.65,293.51 C212.49,294.50 214.00,295.72 214.00,296.22 C214.00,296.71 214.46,296.83 215.03,296.48 C215.65,296.10 215.79,294.37 215.38,292.17 Z M180.60,281.45 C181.44,278.13 180.37,274.37 177.89,271.89 C175.94,269.94 175.74,269.93 173.94,271.56 C170.78,274.41 170.48,279.24 173.12,284.53 L175.45,289.18L177.72,286.54 C178.96,285.09 180.26,282.80 180.60,281.45 Z M123.50,284.04 C127.35,282.79 133.41,279.91 136.97,277.64 C142.60,274.03 143.12,273.46 141.00,273.15 C136.20,272.47 124.26,274.17 121.32,275.95 C119.68,276.95 117.57,279.39 116.62,281.38 C115.22,284.33 114.36,285.00 111.95,285.00 C109.96,285.00 109.00,284.50 109.00,283.46 C109.00,281.37 112.37,274.99 114.85,272.36 C117.13,269.94 116.72,269.00 113.39,269.00 C110.30,269.00 109.28,267.00 111.54,265.35 C112.62,264.56 112.86,264.00 112.11,264.00 C111.41,264.00 108.25,266.59 105.08,269.76 C100.82,274.02 99.12,276.54 98.59,279.38 C98.07,282.14 97.25,283.39 95.68,283.82 C92.54,284.68 99.59,285.87 108.25,285.94 C112.94,285.98 115.00,286.38 115.02,287.25 C115.03,288.12 115.26,288.16 115.77,287.40 C116.17,286.79 119.65,285.28 123.50,284.04 Z M250.75,285.35 C254.79,284.87 255.69,284.46 254.66,283.61 C253.93,283.00 252.80,280.64 252.16,278.36 C250.65,273.03 244.27,266.47 237.63,263.43 C234.66,262.07 227.99,260.43 221.98,259.57 C216.21,258.76 209.25,257.40 206.50,256.55 C199.67,254.46 199.24,254.58 202.19,257.75 C203.60,259.26 204.54,261.06 204.29,261.75 C204.04,262.44 204.35,263.00 204.98,263.00 C205.60,263.00 205.84,262.55 205.50,262.00 C205.16,261.45 205.41,261.00 206.05,261.00 C206.71,261.00 206.95,261.70 206.59,262.62 C206.12,263.86 206.44,264.12 207.95,263.72 C209.03,263.44 211.82,263.86 214.14,264.66 C217.71,265.89 219.73,265.92 227.17,264.87 C235.04,263.75 236.36,263.80 239.54,265.32 C243.16,267.04 243.41,269.00 240.02,269.00 C235.43,269.00 234.86,270.05 237.65,273.36 C240.24,276.42 243.00,281.90 243.00,283.97 C243.00,284.54 241.66,285.00 240.03,285.00 C237.76,285.00 236.70,284.31 235.56,282.12 C232.52,276.24 228.92,274.31 219.50,273.53 C214.75,273.13 210.63,273.04 210.35,273.31 C209.36,274.31 224.29,282.36 230.34,284.09 C237.00,286.00 242.52,286.34 250.75,285.35 Z M92.37,281.12 C91.53,276.89 95.24,269.40 100.77,264.17 C104.07,261.07 104.53,260.37 102.30,261.89 C100.16,263.34 98.30,263.86 96.69,263.46 C92.97,262.52 86.43,264.70 84.61,267.47 C82.72,270.36 82.55,275.86 84.28,278.02 C85.73,279.83 91.19,283.92 92.22,283.97 C92.62,283.99 92.69,282.70 92.37,281.12 Z M198.92,279.75 C198.81,273.30 197.08,269.86 190.32,262.66 C183.50,255.39 181.99,255.78 184.99,264.03 C186.86,269.15 196.55,284.00 198.03,284.00 C198.56,284.00 198.97,282.09 198.92,279.75 Z M267.51,276.33 C268.87,273.46 268.89,272.66 267.61,269.62 C265.78,265.23 263.44,264.00 256.91,264.00 C251.89,264.00 251.75,264.07 253.37,265.86 C254.36,266.95 254.80,268.48 254.43,269.61 C253.96,271.05 254.05,271.17 254.80,270.10 C255.60,268.99 256.10,269.30 257.28,271.60 C258.10,273.20 259.08,276.41 259.47,278.75 L260.18,283.01L263.07,281.30 C264.66,280.36 266.66,278.12 267.51,276.33 Z M142.20,263.04 C146.07,261.32 152.60,255.26 151.63,254.29 C151.48,254.15 148.76,254.94 145.59,256.05 C142.42,257.17 136.16,258.53 131.66,259.08 C123.52,260.09 116.40,261.64 114.50,262.83 C113.02,263.75 127.79,265.87 133.00,265.47 C135.47,265.29 139.61,264.19 142.20,263.04 Z M265.75,259.75 C265.52,259.06 264.52,258.34 263.54,258.15 C261.98,257.85 261.92,258.01 263.12,259.36 C264.79,261.25 266.33,261.48 265.75,259.75 Z M270.00,260.00 C270.00,259.45 269.21,259.01 268.25,259.02 C266.75,259.03 266.72,259.17 268.00,260.00 C269.89,261.22 270.00,261.22 270.00,260.00 Z M277.73,259.40 C277.40,259.06 276.53,259.03 275.81,259.32 C275.01,259.64 275.25,259.87 276.42,259.92 C277.47,259.96 278.06,259.73 277.73,259.40 Z M286.49,258.01 C286.86,257.42 286.41,257.29 285.39,257.68 C284.13,258.16 283.89,257.99 284.49,257.02 C285.04,256.13 284.92,255.93 284.14,256.41 C283.49,256.81 283.23,257.56 283.54,258.07 C284.29,259.28 285.72,259.26 286.49,258.01 Z M272.82,215.25 C268.05,210.26 267.00,207.99 267.00,202.65 C267.00,196.15 267.69,194.89 270.85,195.65 C274.33,196.47 275.80,197.71 277.71,201.40 C280.03,205.89 279.60,219.00 277.14,219.00 C276.73,219.00 274.79,217.31 272.82,215.25 Z M277.34,214.55 C277.71,213.58 277.42,213.29 276.45,213.66 C275.66,213.96 275.26,214.61 275.56,215.10 C276.33,216.34 276.70,216.23 277.34,214.55 Z M250.16,204.61 C247.14,197.98 246.89,196.73 247.54,191.56 C248.16,186.55 248.49,185.90 250.19,186.34 C252.04,186.82 252.05,186.73 250.48,184.34 C249.58,182.96 249.12,181.54 249.47,181.20 C250.56,180.11 253.43,182.52 255.27,186.07 C256.25,187.96 257.50,189.38 258.05,189.24 C259.77,188.80 261.21,194.30 260.65,199.18 C260.15,203.55 255.89,212.04 254.24,211.97 C253.83,211.95 252.00,208.63 250.16,204.61 Z M94.78,209.25 C91.00,204.91 89.53,198.45 91.05,192.81 C92.52,187.37 101.84,177.31 100.83,182.25 C100.69,182.94 101.08,184.40 101.69,185.50 C102.30,186.60 103.12,189.61 103.51,192.19 C104.11,196.24 103.76,197.86 100.96,203.94 C99.17,207.82 97.39,211.00 97.01,211.00 C96.62,211.00 95.62,210.21 94.78,209.25 Z M276.18,201.78 C275.47,201.07 275.00,201.01 275.00,201.63 C275.00,202.97 276.18,204.15 276.85,203.48 C277.13,203.20 276.83,202.43 276.18,201.78 Z M271.56,199.44 C270.61,198.00 269.61,197.06 269.32,197.34 C268.73,197.93 272.29,203.01 272.89,202.43 C273.10,202.23 272.50,200.88 271.56,199.44 Z M294.18,200.78 C293.47,200.07 293.00,200.01 293.00,200.63 C293.00,201.97 294.18,203.15 294.85,202.48 C295.13,202.20 294.83,201.43 294.18,200.78 Z M108.91,196.42 C107.07,191.87 107.38,184.82 109.60,180.43 C111.11,177.46 112.99,175.80 117.32,173.61 C120.48,172.02 123.30,170.97 123.61,171.27 C123.91,171.58 122.44,173.51 120.33,175.57 C118.22,177.62 117.44,178.56 118.58,177.65 C121.51,175.33 122.00,175.56 121.99,179.25 C121.98,185.35 120.10,189.47 115.06,194.44 L110.08,199.34L108.91,196.42 Z M235.50,194.37 C230.44,188.66 229.32,186.00 228.69,178.25 C228.20,172.02 228.20,172.00 230.87,172.00 C236.57,172.00 244.00,181.71 244.00,189.16 C244.00,191.42 241.00,199.02 240.14,198.94 C239.79,198.91 237.70,196.85 235.50,194.37 Z M289.00,197.52 C289.00,196.79 280.28,192.99 278.80,193.08 C278.09,193.13 279.75,194.23 282.50,195.52 C287.62,197.93 289.00,198.36 289.00,197.52 Z M299.70,195.60 C295.88,194.19 288.39,189.45 287.36,187.77 C286.44,186.29 287.85,185.63 289.32,186.85 C290.07,187.47 290.91,187.76 291.19,187.48 C291.46,187.20 293.56,187.64 295.84,188.44 C298.13,189.25 300.00,189.55 300.00,189.11 C300.00,188.67 296.85,187.24 293.00,185.93 C289.15,184.62 286.00,183.24 286.00,182.87 C286.00,182.50 287.42,181.70 289.15,181.10 C297.48,178.19 305.73,181.59 310.30,189.79 C311.92,192.71 313.08,195.25 312.87,195.45 C311.58,196.71 302.99,196.81 299.70,195.60 Z M39.00,195.57 C39.00,193.58 43.37,186.89 46.42,184.20 C50.67,180.47 55.80,179.32 61.10,180.91 C65.38,182.19 66.30,183.96 62.75,184.07 C61.51,184.11 59.60,184.54 58.50,185.03 C57.17,185.62 57.97,185.71 60.92,185.30 L65.33,184.69L62.42,188.35 C60.81,190.36 57.92,192.77 56.00,193.70 C52.57,195.37 39.00,196.86 39.00,195.57 Z M311.00,193.65 C311.00,191.70 305.43,184.30 302.98,182.99 C301.83,182.38 300.18,182.01 299.31,182.19 C298.24,182.40 298.94,183.30 301.53,185.00 C303.61,186.38 305.71,188.57 306.18,189.89 C306.88,191.84 306.79,192.07 305.69,191.15 C304.65,190.30 304.33,190.38 304.33,191.52 C304.33,192.33 305.05,193.01 305.92,193.02 C307.30,193.03 307.31,193.15 306.00,194.00 C304.86,194.74 305.28,194.97 307.75,194.98 C309.82,194.99 311.00,194.51 311.00,193.65 Z M298.00,192.61 C298.00,192.39 297.30,191.95 296.45,191.62 C295.56,191.28 295.16,191.44 295.51,192.01 C296.09,192.96 298.00,193.42 298.00,192.61 Z M267.42,188.08 C265.81,186.48 264.27,185.39 264.00,185.67 C263.55,186.13 268.94,190.98 269.92,191.00 C270.15,191.00 269.02,189.69 267.42,188.08 Z M68.00,189.08 C68.00,187.84 74.33,184.00 76.37,184.00 C79.49,184.00 77.97,186.08 73.42,188.04 C68.16,190.29 68.00,190.32 68.00,189.08 Z M276.06,188.61 C274.17,187.92 272.46,186.89 272.27,186.30 C271.57,184.21 275.20,184.06 279.06,186.03 C285.67,189.40 283.48,191.29 276.06,188.61 Z M100.00,185.88 C100.00,185.33 99.55,185.16 99.00,185.50 C98.45,185.84 98.00,186.57 98.00,187.12 C98.00,187.67 98.45,187.84 99.00,187.50 C99.55,187.16 100.00,186.43 100.00,185.88 Z M268.50,178.00 C268.84,177.45 268.39,177.00 267.50,177.00 C266.61,177.00 266.16,177.45 266.50,178.00 C266.84,178.55 267.29,179.00 267.50,179.00 C267.71,179.00 268.16,178.55 268.50,178.00 Z M44.50,176.59 C40.72,174.91 36.58,170.49 37.45,169.07 C37.82,168.48 40.94,168.00 44.38,168.00 C49.64,168.00 51.00,168.37 52.83,170.31 C58.01,175.84 52.37,180.09 44.50,176.59 Z M232.02,175.52 C231.32,174.69 230.29,174.00 229.72,174.00 C229.15,174.00 229.51,174.90 230.51,176.01 C232.57,178.29 233.95,177.85 232.02,175.52 Z M281.27,177.34 C280.59,177.07 279.24,177.05 278.27,177.31 C277.30,177.56 277.85,177.78 279.50,177.81 C281.15,177.83 281.95,177.62 281.27,177.34 Z M286.31,177.36 C287.37,176.30 286.04,175.05 284.47,175.65 C283.67,175.96 283.26,176.61 283.56,177.10 C284.21,178.15 285.40,178.26 286.31,177.36 Z M236.00,176.62 C236.00,176.41 235.21,175.63 234.25,174.87 C232.66,173.63 232.63,173.66 233.87,175.25 C235.18,176.92 236.00,177.45 236.00,176.62 Z M258.56,173.95 C255.39,172.26 252.57,171.09 252.30,171.37 C251.50,172.17 253.00,174.00 254.45,174.00 C255.19,174.00 256.00,174.56 256.27,175.25 C256.53,175.94 258.46,176.62 260.54,176.76 L264.33,177.02L258.56,173.95 Z M296.15,176.11 C295.08,175.43 295.04,174.80 295.96,173.07 C298.62,168.10 308.03,165.34 313.09,168.05 C314.86,168.99 314.91,169.30 313.58,171.19 C311.01,174.86 306.75,176.99 302.00,176.98 C299.52,176.97 296.89,176.58 296.15,176.11 Z M289.54,173.93 C290.62,172.19 289.39,171.82 288.02,173.48 C287.23,174.43 287.16,175.00 287.82,175.00 C288.40,175.00 289.18,174.52 289.54,173.93 Z M311.00,171.50 C312.29,170.12 312.90,169.00 312.35,169.00 C311.80,169.00 310.29,170.12 309.00,171.50 C307.71,172.88 307.10,174.00 307.65,174.00 C308.20,174.00 309.71,172.88 311.00,171.50 Z M69.83,170.97 C64.51,168.16 60.00,160.70 60.00,154.72 C60.00,152.97 60.46,152.82 64.09,153.40 C71.24,154.54 81.00,160.99 81.00,164.57 C81.00,165.16 82.10,166.69 83.45,167.95 C85.52,169.90 85.69,170.46 84.52,171.62 C82.51,173.63 74.17,173.26 69.83,170.97 Z M270.00,172.10 C270.00,171.47 271.08,170.54 272.40,170.04 C273.72,169.53 275.08,168.69 275.41,168.15 C275.74,167.62 274.23,168.04 272.05,169.09 C268.06,171.02 263.12,171.84 265.83,170.13 C266.56,169.66 268.82,166.86 270.85,163.89 C274.90,157.99 280.44,154.55 287.75,153.41 L292.00,152.74L291.36,156.12 C289.56,165.53 283.20,171.99 274.96,172.78 C271.61,173.10 270.00,172.88 270.00,172.10 Z M95.65,164.97 C94.08,164.50 89.95,161.39 86.48,158.06 C83.01,154.73 79.46,152.00 78.59,152.00 C76.04,152.00 76.76,149.31 79.90,147.07 C86.33,142.49 95.44,145.35 100.05,153.39 C105.04,162.09 103.65,163.36 96.23,156.87 C93.15,154.19 93.56,154.74 97.40,158.47 C101.97,162.90 102.99,164.39 101.90,165.08 C100.25,166.13 99.45,166.11 95.65,164.97 Z M298.00,162.76 C298.00,162.20 297.34,162.31 296.50,163.00 C295.68,163.68 295.00,164.69 295.00,165.24 C295.00,165.80 295.66,165.69 296.50,165.00 C297.32,164.32 298.00,163.31 298.00,162.76 Z M247.00,164.12 C247.00,163.50 247.61,163.00 248.34,163.00 C249.08,163.00 251.00,161.88 252.59,160.50 C255.88,157.68 255.20,157.17 251.43,159.64 C250.06,160.53 248.68,161.01 248.35,160.69 C247.40,159.73 251.78,151.58 254.83,148.66 C258.55,145.10 266.20,144.02 270.82,146.41 C273.80,147.95 275.24,151.00 272.99,151.00 C272.43,151.00 269.10,154.01 265.58,157.68 C259.27,164.28 259.12,164.36 253.10,164.80 C249.00,165.10 247.00,164.87 247.00,164.12 Z M298.48,155.94 C297.49,152.82 303.60,148.14 307.84,148.76 C310.51,149.16 311.00,148.91 311.00,147.17 C311.00,145.18 310.87,145.17 306.49,146.66 C301.78,148.26 295.58,154.46 296.44,156.71 C296.70,157.39 296.48,158.20 295.96,158.53 C295.43,158.85 295.00,159.61 295.00,160.21 C295.00,160.82 295.91,160.49 297.01,159.49 C298.20,158.42 298.80,156.95 298.48,155.94 Z M147.50,159.04 C143.68,157.45 139.86,152.37 139.29,148.11 C138.69,143.67 139.06,143.41 143.60,145.04 C147.60,146.48 150.23,150.44 150.62,155.63 C150.96,160.19 150.77,160.40 147.50,159.04 Z M200.00,159.13 C200.00,158.57 200.45,157.84 201.00,157.50 C201.55,157.16 201.99,156.35 201.98,155.69 C201.98,154.96 201.61,155.07 201.04,155.97 C199.03,159.15 198.89,155.86 200.86,151.78 C204.06,145.17 212.00,141.30 212.00,146.35 C212.00,150.37 210.03,154.60 207.19,156.70 C203.80,159.21 200.00,160.49 200.00,159.13 Z M284.85,157.54 C287.78,157.43 289.52,156.83 290.15,155.69 C290.67,154.76 290.74,154.00 290.30,154.01 C288.67,154.03 279.93,156.95 278.24,158.03 C276.70,159.03 276.72,159.07 278.50,158.42 C279.60,158.02 282.46,157.62 284.85,157.54 Z M150.00,156.56 C150.00,156.32 149.55,155.84 149.00,155.50 C148.45,155.16 148.00,155.36 148.00,155.94 C148.00,156.52 148.45,157.00 149.00,157.00 C149.55,157.00 150.00,156.80 150.00,156.56 Z M120.92,152.02 C117.81,150.37 112.00,144.22 112.00,142.57 C112.00,142.26 115.17,142.00 119.05,142.00 C128.70,142.00 133.96,144.95 135.53,151.25 L136.22,154.00L130.36,153.96 C126.61,153.93 123.21,153.23 120.92,152.02 Z M214.00,153.34 C214.00,152.97 215.11,150.79 216.46,148.48 C219.73,142.89 222.79,141.66 232.75,141.88 C237.11,141.98 238.00,142.31 238.00,143.81 C238.00,146.21 233.41,150.51 228.78,152.45 C225.14,153.97 214.00,154.64 214.00,153.34 Z M135.00,152.61 C135.00,152.39 134.30,151.95 133.45,151.62 C132.56,151.28 132.16,151.44 132.51,152.01 C133.09,152.96 135.00,153.42 135.00,152.61 Z M59.51,148.02 C58.59,146.52 60.66,143.36 64.48,140.45 C68.24,137.58 75.30,136.07 76.43,137.89 C76.81,138.50 77.99,139.00 79.06,139.00 C80.13,139.00 81.00,139.45 81.00,140.00 C81.00,140.55 80.64,141.00 80.20,141.00 C79.76,141.00 77.53,142.80 75.24,145.00 C71.42,148.67 70.63,149.00 65.60,149.00 C62.58,149.00 59.85,148.56 59.51,148.02 Z M271.50,148.00 C271.16,147.45 270.43,147.00 269.88,147.00 C269.33,147.00 269.16,147.45 269.50,148.00 C269.84,148.55 270.57,149.00 271.12,149.00 C271.67,149.00 271.84,148.55 271.50,148.00 Z M279.50,147.48 C275.54,145.47 269.53,140.14 270.32,139.34 C270.67,139.00 271.64,139.28 272.48,139.98 C273.73,141.02 274.00,140.97 274.00,139.73 C274.00,137.66 277.90,136.85 282.06,138.04 C286.31,139.26 291.77,143.82 292.19,146.50 C292.46,148.25 291.87,148.53 287.50,148.75 C284.53,148.90 281.28,148.39 279.50,147.48 Z M177.92,144.75 C177.83,140.85 175.59,134.22 174.81,135.56 C174.51,136.07 173.67,138.86 172.94,141.75 C172.22,144.64 171.28,147.00 170.86,147.00 C169.13,147.00 168.76,139.56 170.25,134.90 C171.71,130.34 171.68,130.02 169.78,128.31 C166.29,125.15 163.81,119.03 163.85,113.71 C163.90,107.18 165.20,105.90 168.58,109.06 C173.72,113.86 175.94,122.32 172.42,123.67 C171.14,124.16 171.09,124.44 172.17,125.12 C174.82,126.80 175.75,125.91 176.39,121.10 C176.84,117.70 178.18,114.64 180.77,111.11 C182.82,108.32 184.79,106.02 185.13,106.02 C186.12,105.99 186.97,110.06 186.99,114.85 C187.00,119.95 184.71,125.30 181.38,127.92 C179.11,129.70 179.07,129.93 180.51,133.36 C182.31,137.69 182.38,140.30 180.80,144.68 C179.27,148.90 178.02,148.93 177.92,144.75 Z M236.00,144.00 C236.00,143.45 235.52,143.00 234.94,143.00 C234.36,143.00 234.16,143.45 234.50,144.00 C234.84,144.55 235.32,145.00 235.56,145.00 C235.80,145.00 236.00,144.55 236.00,144.00 Z M276.50,142.00 C276.16,141.45 275.43,141.00 274.88,141.00 C274.33,141.00 274.16,141.45 274.50,142.00 C274.84,142.55 275.57,143.00 276.12,143.00 C276.67,143.00 276.84,142.55 276.50,142.00 Z M280.76,139.31 C279.81,139.06 278.01,139.05 276.76,139.29 C275.52,139.53 276.30,139.74 278.50,139.75 C280.70,139.76 281.72,139.56 280.76,139.31 Z M43.00,137.95 C43.00,135.48 46.30,130.87 49.74,128.53 C54.60,125.23 61.53,125.06 65.45,128.14 C67.54,129.78 67.86,130.47 66.83,131.12 C65.88,131.73 66.14,131.97 67.75,131.98 C71.37,132.01 70.29,133.31 64.20,136.26 C59.46,138.56 57.19,139.02 50.75,139.01 C46.01,139.01 43.00,138.59 43.00,137.95 Z M286.25,136.35 C283.36,134.98 281.00,133.49 281.00,133.02 C281.00,131.83 288.45,130.71 291.21,131.48 C292.99,131.99 293.17,131.90 292.00,131.08 C291.18,130.50 289.04,130.02 287.25,130.02 C282.91,129.99 283.15,128.69 287.89,126.55 C292.14,124.63 296.44,125.03 301.16,127.78 C303.72,129.26 308.00,135.59 308.00,137.89 C308.00,138.62 305.20,138.97 299.75,138.92 C293.16,138.85 290.44,138.33 286.25,136.35 Z M306.00,136.00 C306.00,135.45 305.55,135.00 305.00,135.00 C304.45,135.00 304.00,135.45 304.00,136.00 C304.00,136.55 304.45,137.00 305.00,137.00 C305.55,137.00 306.00,136.55 306.00,136.00 Z M304.00,133.19 C304.00,131.92 300.05,128.00 298.77,128.00 C298.14,128.00 298.92,129.35 300.50,131.00 C303.56,134.20 304.00,134.47 304.00,133.19 Z M59.73,131.40 C59.40,131.06 58.53,131.03 57.81,131.32 C57.01,131.64 57.25,131.87 58.42,131.92 C59.47,131.96 60.06,131.73 59.73,131.40 Z M136.50,129.14 C131.50,126.86 130.06,125.14 129.31,120.54 C128.73,116.94 128.76,116.90 131.61,117.57 C138.06,119.07 142.97,123.41 144.54,129.00 C145.24,131.50 145.23,131.50 141.88,128.50 C140.04,126.85 139.31,126.44 140.27,127.58 C143.49,131.45 142.49,131.86 136.50,129.14 Z M206.48,128.18 C207.44,124.27 212.52,119.46 217.16,118.07 C219.38,117.41 221.47,117.14 221.80,117.47 C222.14,117.80 221.76,119.95 220.96,122.24 C219.30,126.98 215.08,130.01 209.39,130.53 C205.96,130.85 205.84,130.76 206.48,128.18 Z M120.66,128.87 C118.16,127.41 116.00,121.93 116.00,117.03 C116.00,112.41 116.31,112.28 120.77,115.00 C124.10,117.03 125.81,120.08 126.34,124.92 C126.50,126.39 126.96,128.13 127.37,128.80 C128.33,130.34 123.28,130.39 120.66,128.87 Z M223.00,129.06 C223.00,128.54 223.43,127.85 223.96,127.53 C224.48,127.20 224.68,126.33 224.39,125.58 C223.47,123.17 226.80,117.09 230.19,115.03 C232.01,113.92 233.84,113.01 234.25,113.00 C235.55,113.00 235.07,120.91 233.55,124.54 C232.11,127.97 228.91,130.00 224.93,130.00 C223.87,130.00 223.00,129.58 223.00,129.06 Z M278.90,126.57 C278.64,126.31 277.83,127.08 277.10,128.30 C275.84,130.40 275.86,130.42 277.58,128.77 C278.57,127.82 279.17,126.83 278.90,126.57 Z M296.36,128.50 C296.68,127.67 296.55,127.00 296.08,127.00 C295.60,127.00 294.95,127.67 294.64,128.50 C294.32,129.32 294.45,130.00 294.92,130.00 C295.40,130.00 296.05,129.32 296.36,128.50 Z M292.00,127.53 C292.00,126.64 291.41,126.29 290.51,126.64 C289.68,126.95 289.26,127.61 289.56,128.10 C290.44,129.52 292.00,129.15 292.00,127.53 Z M283.00,120.38 C283.00,119.62 283.40,119.00 283.88,119.00 C285.31,119.00 285.90,115.16 284.63,114.11 C283.80,113.42 283.02,114.68 281.86,118.59 C280.58,122.93 280.53,123.80 281.63,122.90 C282.38,122.27 283.00,121.14 283.00,120.38 Z M228.00,120.88 C228.00,120.33 227.55,120.16 227.00,120.50 C226.45,120.84 226.00,121.57 226.00,122.12 C226.00,122.67 226.45,122.84 227.00,122.50 C227.55,122.16 228.00,121.43 228.00,120.88 Z M289.54,120.93 C290.62,119.19 289.39,118.82 288.02,120.48 C287.23,121.43 287.16,122.00 287.82,122.00 C288.40,122.00 289.18,121.52 289.54,120.93 Z M256.67,116.14 C256.67,113.85 256.30,113.37 254.83,113.75 C252.92,114.26 252.27,116.00 254.00,116.00 C254.55,116.00 255.00,116.67 255.00,117.50 C255.00,118.33 255.38,119.00 255.83,119.00 C256.29,119.00 256.67,117.71 256.67,116.14 Z M264.68,115.81 C264.36,115.01 264.13,115.25 264.08,116.42 C264.04,117.47 264.27,118.06 264.60,117.73 C264.94,117.40 264.97,116.53 264.68,115.81 Z M294.68,111.81 C294.36,111.01 294.13,111.25 294.08,112.42 C294.04,113.47 294.27,114.06 294.60,113.73 C294.94,113.40 294.97,112.53 294.68,111.81 Z M278.00,109.42 C278.00,106.80 277.22,105.06 275.08,102.92 C273.47,101.32 271.56,100.03 270.83,100.07 C270.10,100.10 270.52,100.63 271.77,101.23 C273.34,101.99 273.85,102.88 273.45,104.16 C273.05,105.41 273.37,106.00 274.43,106.00 C275.29,106.00 276.07,106.79 276.15,107.75 C276.24,108.71 276.41,109.95 276.54,110.50 C276.66,111.05 276.82,111.84 276.88,112.25 C277.23,114.47 278.00,112.50 278.00,109.42 Z M286.57,111.06 C286.57,109.55 286.27,109.36 285.24,110.22 C284.04,111.21 284.45,112.09 286.54,112.98 C286.56,112.99 286.57,112.12 286.57,111.06 Z M257.26,111.40 C257.98,110.68 257.07,108.00 256.11,108.00 C255.73,108.00 255.36,108.90 255.27,110.00 C255.13,111.95 256.06,112.61 257.26,111.40 Z M203.88,105.96 C203.82,103.51 203.55,102.40 203.29,103.50 C201.64,110.36 197.73,103.15 197.59,93.00 C197.51,87.59 197.97,85.70 200.29,81.75 C203.60,76.12 205.09,75.66 204.31,80.50 C203.92,82.87 204.13,84.00 204.94,84.00 C205.68,84.00 205.89,83.24 205.50,82.00 C204.26,78.08 206.13,80.09 208.54,85.25 C212.44,93.64 211.22,102.89 205.40,108.96 C204.19,110.23 203.98,109.83 203.88,105.96 Z M142.97,105.75 C139.71,100.45 138.77,95.58 140.06,90.77 C141.39,85.82 145.70,77.00 146.78,77.00 C147.61,77.00 148.40,78.31 151.87,85.45 C154.62,91.11 154.39,97.38 151.21,103.59 C149.15,107.59 148.36,107.23 146.86,101.59 C146.27,99.34 146.18,99.93 146.56,103.75 C147.15,109.87 145.93,110.56 142.97,105.75 Z M170.37,105.34 C168.55,100.99 169.19,96.30 172.10,92.60 C174.67,89.33 176.32,89.32 178.86,92.55 C181.67,96.12 182.29,99.97 180.79,104.48 C179.20,109.25 177.03,110.30 176.93,106.33 C176.89,104.78 176.52,102.62 176.10,101.55 C175.49,100.00 175.10,100.54 174.15,104.30 C173.50,106.89 172.73,109.00 172.43,109.00 C172.14,109.00 171.21,107.35 170.37,105.34 Z M260.89,106.21 C261.69,104.71 261.42,104.41 259.17,104.32 C257.65,104.27 257.28,104.43 258.30,104.70 C259.73,105.07 259.86,105.46 258.93,106.58 C258.13,107.55 258.10,108.00 258.84,108.00 C259.44,108.00 260.36,107.20 260.89,106.21 Z M290.50,107.00 C290.84,106.45 290.67,106.00 290.12,106.00 C289.57,106.00 288.84,106.45 288.50,107.00 C288.16,107.55 288.33,108.00 288.88,108.00 C289.43,108.00 290.16,107.55 290.50,107.00 Z M295.61,105.42 C295.27,104.55 295.00,103.10 295.00,102.20 C295.00,100.96 294.60,101.13 293.37,102.89 C292.00,104.84 291.96,105.36 293.12,106.09 C295.25,107.44 296.28,107.16 295.61,105.42 Z M129.00,101.00 C125.86,97.86 125.00,96.25 125.00,93.50 C125.00,90.71 125.39,90.00 126.93,90.00 C132.66,90.00 136.00,93.76 137.66,102.05 C138.19,104.72 138.00,105.00 135.62,105.00 C133.90,105.00 131.63,103.63 129.00,101.00 Z M213.08,101.97 C213.04,100.03 213.71,97.43 214.59,96.18 C216.60,93.30 223.77,88.74 225.04,89.52 C226.64,90.51 226.12,95.30 224.04,98.70 C221.68,102.57 216.12,105.81 214.99,103.98 C214.42,103.07 214.11,103.10 213.70,104.14 C213.40,104.89 213.12,103.91 213.08,101.97 Z M120.66,101.87 C119.64,101.28 117.92,98.93 116.83,96.65 C114.94,92.67 114.88,92.63 115.40,95.75 C116.09,99.82 114.91,99.87 111.59,95.92 C107.22,90.73 108.39,80.28 113.79,76.34 C118.88,72.63 119.50,72.80 119.62,77.88 C119.80,85.22 121.75,98.66 122.96,100.92 C124.18,103.21 123.47,103.50 120.66,101.87 Z M228.78,95.14 C228.98,91.49 229.79,86.14 230.59,83.27 C231.39,80.39 231.77,76.93 231.43,75.59 C230.90,73.48 231.11,73.21 232.91,73.69 C235.02,74.24 235.85,76.00 234.00,76.00 C233.45,76.00 233.00,76.45 233.00,77.00 C233.00,77.55 233.64,78.00 234.42,78.00 C235.20,78.00 236.03,78.56 236.28,79.25 C236.53,79.94 237.08,80.17 237.51,79.77 C237.93,79.37 237.72,78.36 237.02,77.52 C236.20,76.54 236.14,76.00 236.84,76.00 C237.44,76.00 238.40,76.87 238.96,77.93 C240.33,80.49 240.27,81.25 238.75,80.51 C238.06,80.18 238.51,80.66 239.75,81.58 C241.32,82.74 242.00,84.28 242.00,86.67 C242.00,89.85 239.64,96.00 238.42,96.00 C238.12,96.00 238.16,95.55 238.50,95.00 C238.84,94.45 238.64,94.00 238.06,94.00 C237.48,94.00 236.94,94.45 236.88,95.00 C236.81,95.55 236.69,96.53 236.62,97.17 C236.56,97.81 235.87,98.54 235.11,98.80 C234.05,99.15 233.87,98.58 234.36,96.38 C234.95,93.73 234.84,93.80 233.04,97.13 C229.68,103.34 228.37,102.73 228.78,95.14 Z M268.92,100.36 C269.89,99.52 263.37,100.12 262.00,100.99 C260.98,101.64 261.78,101.75 264.50,101.33 C266.70,100.99 268.69,100.56 268.92,100.36 Z M191.12,97.73 C190.14,96.75 190.02,96.87 190.56,98.29 C190.94,99.28 191.50,99.83 191.81,99.53 C192.11,99.22 191.81,98.41 191.12,97.73 Z M93.56,96.52 C91.94,95.20 89.47,93.83 88.06,93.48 C81.48,91.84 75.91,84.30 74.59,75.25 C74.15,72.17 74.32,71.00 75.24,71.01 C77.83,71.03 86.60,75.85 89.33,78.76 C91.89,81.49 94.57,88.77 93.43,89.90 C93.18,90.16 91.40,88.84 89.49,86.99 C87.57,85.13 86.00,84.06 86.00,84.61 C86.00,85.16 88.47,87.96 91.50,90.82 C94.53,93.69 97.00,96.70 97.00,97.52 C97.00,99.38 97.08,99.40 93.56,96.52 Z M253.00,98.00 C253.00,97.45 254.57,95.26 256.50,93.13 C260.38,88.84 260.71,88.00 258.50,88.00 C255.38,88.00 257.99,82.12 263.16,77.50 C265.96,75.00 274.87,70.00 276.53,70.00 C278.53,70.00 274.86,84.06 272.31,86.13 C270.81,87.35 270.71,87.28 271.38,85.50 C271.99,83.88 271.59,84.02 269.26,86.25 C267.68,87.76 265.90,89.00 265.30,89.00 C264.70,89.00 263.95,89.70 263.62,90.55 C262.97,92.24 263.57,92.01 268.25,88.77 C269.76,87.72 271.00,87.23 270.99,87.68 C270.98,88.79 265.32,92.56 260.92,94.39 C258.95,95.21 256.76,96.59 256.05,97.44 C254.59,99.20 253.00,99.50 253.00,98.00 Z M72.42,96.87 C67.29,95.71 60.67,89.45 63.01,87.97 C63.83,87.45 66.60,87.02 69.17,87.02 C74.77,87.00 80.28,90.82 79.79,94.37 C79.52,96.36 78.14,98.09 77.00,97.88 C76.72,97.83 74.66,97.37 72.42,96.87 Z M272.25,97.19 C270.46,97.02 269.00,96.45 269.00,95.94 C269.00,95.43 270.59,93.24 272.54,91.08 C276.39,86.83 282.33,84.93 285.70,86.89 C287.36,87.86 287.33,87.94 285.34,87.97 C284.02,87.99 283.26,88.57 283.39,89.47 C283.78,92.13 285.02,92.41 286.58,90.19 C287.42,88.99 288.57,88.00 289.13,88.00 C290.42,88.00 286.16,93.33 283.51,95.04 C280.90,96.71 276.31,97.59 272.25,97.19 Z M248.00,95.00 C248.00,94.45 247.55,94.00 247.00,94.00 C246.45,94.00 246.00,94.45 246.00,95.00 C246.00,95.55 246.45,96.00 247.00,96.00 C247.55,96.00 248.00,95.55 248.00,95.00 Z M277.92,94.25 C277.88,93.29 277.62,93.04 277.36,93.69 C277.09,94.35 276.27,94.66 275.54,94.38 C274.80,94.09 273.91,94.34 273.54,94.93 C273.14,95.58 273.88,96.00 275.44,96.00 C277.24,96.00 277.98,95.48 277.92,94.25 Z M274.50,92.00 C275.50,90.90 276.08,90.00 275.81,90.00 C275.53,90.00 274.50,90.90 273.50,92.00 C272.50,93.10 271.92,94.00 272.19,94.00 C272.47,94.00 273.50,93.10 274.50,92.00 Z M280.14,88.21 C279.42,87.97 278.35,88.25 277.77,88.83 C277.03,89.57 277.42,89.70 279.08,89.27 C280.43,88.92 280.89,88.46 280.14,88.21 Z M155.00,83.02 C151.73,77.91 151.50,77.01 151.50,69.36 C151.50,64.85 151.81,60.86 152.18,60.49 C153.45,59.22 161.72,65.89 163.48,69.59 C165.61,74.09 165.17,83.26 162.70,85.73 C161.20,87.22 161.02,87.01 160.30,82.92 L159.52,78.50L159.01,83.49 L158.50,88.49L155.00,83.02 Z M190.97,84.75 C190.94,81.82 190.83,81.70 189.82,83.50 C188.16,86.48 187.97,86.57 186.96,84.97 C185.32,82.38 185.86,72.73 187.85,68.98 C189.86,65.21 197.50,59.17 198.72,60.39 C199.14,60.80 199.47,64.62 199.47,68.88 C199.47,75.94 199.17,77.12 196.03,82.31 C194.13,85.44 192.22,88.00 191.79,88.00 C191.35,88.00 190.99,86.54 190.97,84.75 Z M260.57,85.07 C260.57,84.01 260.22,83.37 259.79,83.63 C259.35,83.90 259.00,84.77 259.00,85.56 C259.00,86.35 259.35,87.00 259.79,87.00 C260.22,87.00 260.57,86.13 260.57,85.07 Z M223.50,84.00 C223.84,83.45 223.64,83.00 223.06,83.00 C222.48,83.00 222.00,83.45 222.00,84.00 C222.00,84.55 222.20,85.00 222.44,85.00 C222.68,85.00 223.16,84.55 223.50,84.00 Z M216.68,80.81 C216.36,80.01 216.13,80.25 216.08,81.42 C216.04,82.47 216.27,83.06 216.60,82.73 C216.94,82.40 216.97,81.53 216.68,80.81 Z M273.98,79.19 C273.99,78.47 273.55,78.16 273.00,78.50 C272.45,78.84 272.01,80.10 272.02,81.31 C272.03,83.09 272.21,83.22 273.00,82.00 C273.53,81.17 273.98,79.91 273.98,79.19 Z M265.00,80.06 C265.00,79.54 264.55,78.84 264.00,78.50 C263.45,78.16 263.00,78.58 263.00,79.44 C263.00,80.30 263.45,81.00 264.00,81.00 C264.55,81.00 265.00,80.58 265.00,80.06 Z M273.38,75.59 C274.64,76.08 276.57,73.24 275.63,72.30 C274.84,71.51 266.05,76.50 266.03,77.75 C266.01,78.44 266.45,79.00 267.00,79.00 C267.55,79.00 268.00,78.55 268.00,78.00 C268.00,77.45 268.44,77.00 268.97,77.00 C269.50,77.00 269.70,77.79 269.40,78.75 C269.11,79.71 269.58,79.28 270.45,77.79 C271.36,76.23 272.60,75.29 273.38,75.59 Z M249.50,77.00 C249.84,76.45 249.49,75.11 248.72,74.02 C247.40,72.13 247.33,72.18 247.33,75.02 C247.33,77.99 248.33,78.90 249.50,77.00 Z M94.68,71.81 C94.36,71.01 94.13,71.25 94.08,72.42 C94.04,73.47 94.27,74.06 94.60,73.73 C94.94,73.40 94.97,72.53 94.68,71.81 Z M261.00,69.00 C261.00,67.90 260.83,67.00 260.62,67.00 C260.41,67.00 260.00,67.90 259.71,69.00 C259.42,70.10 259.60,71.00 260.09,71.00 C260.59,71.00 261.00,70.10 261.00,69.00 Z M142.90,65.25 C142.85,62.64 142.44,59.38 142.00,58.00 C141.29,55.79 141.19,55.94 141.10,59.33 C140.98,63.90 139.51,63.83 136.30,59.10 C131.91,52.63 132.45,42.08 137.45,36.27 C138.76,34.74 140.04,33.73 140.31,34.00 C141.20,34.94 146.18,49.48 147.20,54.12 C148.00,57.76 147.87,59.95 146.58,64.37 C145.68,67.47 144.51,70.00 143.97,70.00 C143.44,70.00 142.96,67.86 142.90,65.25 Z M204.58,65.74 C202.23,59.72 202.84,51.18 206.06,44.93 C207.32,42.49 208.62,38.92 208.94,37.00 C209.54,33.48 211.90,32.19 212.80,34.89 C213.08,35.73 212.82,36.00 212.13,35.58 C211.51,35.20 211.00,35.38 211.00,35.98 C211.00,36.59 211.79,36.96 212.75,36.79 C215.01,36.41 218.01,42.29 217.96,47.00 C217.91,50.96 215.33,58.47 212.83,61.91 C210.94,64.52 208.55,63.82 209.32,60.89 C209.59,59.85 209.46,59.00 209.02,59.00 C208.58,59.00 207.83,61.59 207.33,64.75 L206.44,70.50L204.58,65.74 Z M246.56,64.38 C246.01,62.19 245.66,61.91 244.92,63.05 C244.15,64.25 243.64,64.06 242.03,62.00 C239.40,58.64 238.69,54.92 239.51,48.91 C240.36,42.76 242.12,42.67 246.26,48.56 C248.62,51.91 249.12,53.69 249.20,58.86 C249.29,65.72 247.72,69.01 246.56,64.38 Z M101.52,62.11 C100.61,56.76 102.46,50.69 106.10,47.05 C107.78,45.37 109.52,44.00 109.96,44.00 C111.44,44.00 112.22,54.72 110.92,57.19 C108.38,62.01 106.36,63.96 105.15,62.75 C104.28,61.88 104.00,62.14 104.00,63.80 C104.00,67.47 102.22,66.26 101.52,62.11 Z M259.63,58.87 C258.75,56.85 258.13,56.21 258.08,57.26 C258.00,59.02 260.12,63.21 260.76,62.57 C260.95,62.38 260.44,60.72 259.63,58.87 Z M105.68,58.81 C105.36,58.01 105.13,58.25 105.08,59.42 C105.04,60.47 105.27,61.06 105.60,60.73 C105.94,60.40 105.97,59.53 105.68,58.81 Z M118.25,56.33 C119.76,54.71 121.00,52.98 121.00,52.47 C121.00,51.97 120.30,52.56 119.44,53.78 C116.17,58.45 114.95,55.23 117.18,47.79 C117.93,45.28 119.98,42.43 122.82,39.93 C129.31,34.22 130.39,34.59 129.77,42.30 C128.98,52.06 125.62,56.86 118.35,58.59 L115.50,59.27L118.25,56.33 Z M229.50,57.60 C223.69,55.03 220.44,48.66 221.25,41.43 C221.54,38.94 222.02,36.65 222.33,36.34 C223.00,35.67 228.80,39.65 231.26,42.48 C232.23,43.59 232.85,45.50 232.65,46.72 C232.45,47.94 232.67,48.70 233.14,48.41 C233.62,48.12 234.00,48.81 234.00,49.94 C234.00,51.07 233.53,52.00 232.96,52.00 C232.26,52.00 232.27,52.64 233.00,54.00 C234.77,57.31 232.37,56.27 230.12,52.75 C228.97,50.96 228.03,49.96 228.02,50.53 C228.00,51.84 230.94,56.13 232.95,57.72 C234.99,59.32 233.26,59.26 229.50,57.60 Z M244.94,48.92 C243.26,46.56 242.53,46.14 241.88,47.16 C241.41,47.90 241.03,49.17 241.03,50.00 C241.03,51.19 241.20,51.23 241.87,50.18 C242.55,49.11 243.03,49.17 244.35,50.50 C245.26,51.40 246.04,52.67 246.08,53.32 C246.14,54.17 246.30,54.15 246.66,53.26 C246.93,52.59 246.16,50.63 244.94,48.92 Z M215.68,49.81 C215.36,49.01 215.13,49.25 215.08,50.42 C215.04,51.47 215.27,52.06 215.60,51.73 C215.94,51.40 215.97,50.53 215.68,49.81 Z M200.00,44.00 C200.00,43.45 199.55,43.00 199.00,43.00 C198.45,43.00 198.00,43.45 198.00,44.00 C198.00,44.55 198.45,45.00 199.00,45.00 C199.55,45.00 200.00,44.55 200.00,44.00 Z M229.00,42.62 C229.00,42.41 228.21,41.63 227.25,40.87 C225.66,39.63 225.63,39.66 226.87,41.25 C228.18,42.92 229.00,43.45 229.00,42.62 Z"/>
</svg>